<?xml version="1.0" encoding="UTF-8" standalone="no"?>
<!-- Created with Inkscape (http://www.inkscape.org/) -->
<svg
   xmlns:dc="http://purl.org/dc/elements/1.1/"
   xmlns:cc="http://web.resource.org/cc/"
   xmlns:rdf="http://www.w3.org/1999/02/22-rdf-syntax-ns#"
   xmlns:svg="http://www.w3.org/2000/svg"
   xmlns="http://www.w3.org/2000/svg"
   xmlns:sodipodi="http://sodipodi.sourceforge.net/DTD/sodipodi-0.dtd"
   xmlns:inkscape="http://www.inkscape.org/namespaces/inkscape"
   height="323.75"
   width="303.72"
   id="svg2"
   sodipodi:version="0.32"
   inkscape:version="0.44.1"
   sodipodi:docbase="D:\dokumenty\kot\do wiki\upload"
   sodipodi:docname="PiS logo.svg"
   version="1.0">
  <defs
     id="defs4" />
  <sodipodi:namedview
     id="base"
     pagecolor="#ffffff"
     bordercolor="#666666"
     borderopacity="1.0"
     inkscape:pageopacity="0.0"
     inkscape:pageshadow="2"
     inkscape:cx="151.86"
     inkscape:cy="161.875"
     inkscape:zoom="1.5589449"
     inkscape:document-units="px"
     inkscape:current-layer="layer1"
     inkscape:window-width="1024"
     inkscape:window-height="682"
     inkscape:window-x="-4"
     inkscape:window-y="-4"
     showguides="true"
     inkscape:guide-bbox="true"
     width="303.72px"
     height="323.75px" />
  <metadata
     id="metadata7">
    <rdf:RDF>
      <cc:Work
         rdf:about="">
        <dc:format>image/svg+xml</dc:format>
        <dc:type
           rdf:resource="http://purl.org/dc/dcmitype/StillImage" />
      </cc:Work>
    </rdf:RDF>
  </metadata>
  <g
     inkscape:groupmode="layer"
     inkscape:label="Warstwa 1"
     id="layer1"
     transform="translate(-161.2766,-38.82121)">
    <g
       id="g8507"
       transform="translate(1.498266,6.000344)">
      <path
         id="text2096"
         d="M 161.27662,342.29553 L 161.27662,312.48945 L 167.46743,312.48945 C 168.55706,312.48948 169.38922,312.58436 169.96391,312.7741 C 170.76993,313.0181 171.44536,313.48234 171.99019,314.16681 C 172.535,314.85133 172.97346,315.8103 173.30559,317.04372 C 173.6377,318.2772 173.80376,319.63263 173.80377,321.11004 C 173.80376,323.64472 173.35969,325.7897 172.47158,327.54498 C 171.58343,329.30028 169.97882,330.17793 167.65775,330.17792 L 163.44844,330.17792 L 163.44844,342.29553 L 161.27662,342.29553 z M 163.44844,326.66056 L 167.69133,326.66056 C 169.09442,326.66058 170.09077,326.18617 170.68038,325.23735 C 171.26997,324.28856 171.56477,322.95345 171.56478,321.23203 C 171.56477,319.98505 171.39125,318.91764 171.04421,318.02981 C 170.69716,317.14202 170.24003,316.55579 169.67284,316.27112 C 169.30712,316.09494 168.6317,316.00684 167.64655,316.00682 L 163.44844,316.00682 L 163.44844,326.66056 z "
         style="font-size:47.490345px;font-style:normal;font-variant:normal;font-weight:normal;font-stretch:normal;text-align:center;line-height:100%;writing-mode:lr-tb;text-anchor:middle;fill:#c52624;fill-opacity:1;stroke:none;stroke-width:1px;stroke-linecap:butt;stroke-linejoin:miter;stroke-opacity:1;font-family:Arial" />
      <path
         id="text2100"
         d="M 175.2504,342.29553 L 175.2504,320.7034 L 178.02222,320.7034 L 178.02222,323.97678 C 178.72942,322.44516 179.38244,321.43535 179.9813,320.94738 C 180.58014,320.45944 181.23888,320.21546 181.9575,320.21544 C 182.99549,320.21546 184.05061,320.60854 185.12285,321.39467 L 184.06203,324.79004 C 183.30918,324.26144 182.55634,323.99714 181.80351,323.99711 C 181.13051,323.99714 180.52596,324.23773 179.98986,324.71888 C 179.45374,325.20008 179.07161,325.86764 178.84349,326.72154 C 178.50128,328.02278 178.33018,329.44599 178.33019,330.99117 L 178.33019,342.29553 L 175.2504,342.29553 z "
         style="font-size:58.71088409px;font-style:normal;font-variant:normal;font-weight:normal;font-stretch:normal;text-align:center;line-height:100%;writing-mode:lr-tb;text-anchor:middle;fill:#c52624;fill-opacity:1;stroke:none;stroke-width:1px;stroke-linecap:butt;stroke-linejoin:miter;stroke-opacity:1;font-family:Arial" />
      <path
         id="text2104"
         d="M 196.35282,339.14415 C 195.40919,340.29627 194.50095,341.10954 193.62811,341.58393 C 192.75526,342.05834 191.81871,342.29553 190.81848,342.29553 C 189.16714,342.29553 187.89798,341.71609 187.01097,340.55719 C 186.12397,339.3983 185.68047,337.91748 185.68047,336.11474 C 185.68047,335.0575 185.84796,334.09175 186.18295,333.21749 C 186.51793,332.34324 186.95672,331.6418 187.49929,331.11317 C 188.04188,330.58456 188.65287,330.18471 189.33229,329.9136 C 189.8324,329.72385 190.58729,329.54087 191.59696,329.36466 C 193.65405,329.01225 195.16856,328.59207 196.1405,328.10409 C 196.14993,327.60259 196.15464,327.28407 196.15466,327.14851 C 196.15464,325.65755 195.91402,324.60708 195.43278,323.99711 C 194.78168,323.17031 193.81447,322.75691 192.53115,322.75689 C 191.33275,322.75691 190.44811,323.05849 189.87722,323.66164 C 189.30633,324.26484 188.88406,325.33224 188.61041,326.86387 L 186.11925,326.37591 C 186.34572,324.84428 186.71845,323.60745 187.23744,322.6654 C 187.75643,321.72339 188.50661,320.99823 189.48798,320.48992 C 190.46934,319.98165 191.6064,319.7275 192.89917,319.72748 C 194.18248,319.7275 195.22517,319.94437 196.02727,320.3781 C 196.82933,320.81186 197.41909,321.35742 197.79656,322.01478 C 198.17399,322.67219 198.4382,323.5024 198.5892,324.50541 C 198.67411,325.12892 198.71657,326.25394 198.71659,327.88045 L 198.71659,332.76003 C 198.71657,336.16219 198.77083,338.31395 198.87936,339.21531 C 198.98786,340.11668 199.20253,340.98076 199.52338,341.80758 L 196.86237,341.80758 C 196.59814,341.04854 196.4283,340.16072 196.35282,339.14415 L 196.35282,339.14415 z M 196.1405,330.97085 C 195.21574,331.51304 193.82862,331.97389 191.97913,332.35339 C 190.93171,332.57028 190.19097,332.81426 189.75691,333.08534 C 189.32284,333.35643 188.98785,333.7529 188.75195,334.27473 C 188.51604,334.79658 188.39809,335.37603 188.3981,336.01308 C 188.39809,336.989 188.65523,337.80226 189.1695,338.45287 C 189.68377,339.10348 190.43631,339.42879 191.42712,339.42879 C 192.40847,339.42879 193.28132,339.12043 194.04567,338.5037 C 194.80999,337.88698 195.37144,337.04322 195.73003,335.97242 C 196.00367,335.14561 196.14049,333.92572 196.1405,332.31273 L 196.1405,330.97085 z "
         style="font-size:53.39966583px;font-style:normal;font-variant:normal;font-weight:normal;font-stretch:normal;text-align:center;line-height:100%;writing-mode:lr-tb;text-anchor:middle;fill:#c52624;fill-opacity:1;stroke:none;stroke-width:1px;stroke-linecap:butt;stroke-linejoin:miter;stroke-opacity:1;font-family:Arial" />
      <path
         id="text2108"
         d="M 205.10158,342.29553 L 200.35972,320.70341 L 203.07352,320.70341 L 205.53929,333.16666 L 206.45848,337.80225 C 206.49738,337.57184 206.76487,336.08763 207.26095,333.34964 L 209.72672,320.70341 L 212.42592,320.70341 L 214.74579,333.22766 L 215.51907,337.35496 L 216.40908,333.18699 L 219.06452,320.70341 L 221.61783,320.70341 L 216.77384,342.29553 L 214.04545,342.29553 L 211.57969,329.36466 L 210.98148,325.68465 L 207.84456,342.29553 L 205.10158,342.29553 z "
         style="font-size:54.21591568px;font-style:normal;font-variant:normal;font-weight:normal;font-stretch:normal;text-align:center;line-height:100%;writing-mode:lr-tb;text-anchor:middle;fill:#c52624;fill-opacity:1;stroke:none;stroke-width:1px;stroke-linecap:butt;stroke-linejoin:miter;stroke-opacity:1;font-family:Arial" />
      <path
         id="text2112"
         d="M 222.73631,331.01151 C 222.73631,327.01298 223.49032,324.05135 224.99833,322.12661 C 226.25807,320.52721 227.79366,319.7275 229.60512,319.72748 C 231.61886,319.7275 233.2648,320.70004 234.54294,322.64507 C 235.82106,324.59013 236.46013,327.27729 236.46014,330.70654 C 236.46013,333.48519 236.17737,335.67083 235.61189,337.26347 C 235.04637,338.85611 234.2234,340.09295 233.14297,340.97398 C 232.06252,341.85502 230.88325,342.29553 229.60512,342.29553 C 227.55459,342.29553 225.89715,341.32639 224.63281,339.38812 C 223.36848,337.44985 222.73631,334.65765 222.73631,331.01151 L 222.73631,331.01151 z M 225.28797,331.01151 C 225.28797,333.77661 225.69716,335.84704 226.51554,337.22281 C 227.3339,338.59857 228.36376,339.28647 229.60512,339.28646 C 230.83727,339.28647 231.86253,338.59518 232.68092,337.21264 C 233.49927,335.8301 233.90846,333.7224 233.90848,330.88952 C 233.90846,328.21932 233.49698,326.19633 232.67402,324.82054 C 231.85104,323.44479 230.82807,322.7569 229.60512,322.75689 C 228.36376,322.7569 227.3339,323.4414 226.51554,324.81037 C 225.69716,326.17939 225.28797,328.24643 225.28797,331.01151 L 225.28797,331.01151 z "
         style="font-size:52.71331024px;font-style:normal;font-variant:normal;font-weight:normal;font-stretch:normal;text-align:center;line-height:100%;writing-mode:lr-tb;text-anchor:middle;fill:#c52624;fill-opacity:1;stroke:none;stroke-width:1px;stroke-linecap:butt;stroke-linejoin:miter;stroke-opacity:1;font-family:Arial" />
      <path
         id="text2116"
         d="M 265.18124,335.55561 C 265.56026,336.5112 266.14873,337.2838 266.94667,337.87342 C 267.7446,338.46303 268.64226,338.75784 269.63969,338.75784 C 270.52539,338.75784 271.30736,338.53419 271.98562,338.08689 C 272.66385,337.63961 273.16854,337.02626 273.49969,336.24688 C 273.83082,335.46752 273.99639,334.61697 273.99641,333.69527 C 273.99639,332.76003 273.83681,331.94337 273.51764,331.24531 C 273.19846,330.54727 272.67182,329.96105 271.93774,329.48663 C 271.46695,329.17489 270.42565,328.69032 268.81383,328.03292 C 267.202,327.37555 266.07293,326.75543 265.4266,326.17258 C 264.58877,325.4271 263.96439,324.50201 263.55346,323.39732 C 263.14252,322.29265 262.93705,321.05581 262.93706,319.6868 C 262.93705,318.18228 263.1884,316.77602 263.6911,315.46799 C 264.1938,314.16002 264.92789,313.16716 265.89339,312.48941 C 266.85889,311.81172 267.93211,311.47287 269.11305,311.47283 C 270.41368,311.47287 271.5607,311.82867 272.55414,312.54025 C 273.54755,313.25188 274.31157,314.29896 274.8462,315.68147 C 274.8462,315.68147 272.26689,316.39308 272.26689,316.39308 C 271.57666,315.43075 270.5573,314.94957 269.20881,314.94954 C 267.80444,314.94957 266.78109,315.38669 266.13876,316.26092 C 265.49642,317.13521 265.17525,318.18906 265.17526,319.42248 C 265.17525,320.49331 265.40267,321.37434 265.85749,322.0656 C 266.30433,322.75689 267.4713,323.4651 269.35842,324.19025 C 271.24552,324.91542 272.54017,325.54909 273.24236,326.09125 C 274.2637,326.89098 275.01774,327.90417 275.5045,329.13083 C 275.99122,330.35752 276.23459,331.77056 276.23461,333.36996 C 276.23459,334.95584 275.96728,336.45021 275.43268,337.85308 C 274.89805,339.25596 274.13004,340.34709 273.12865,341.12646 C 272.12724,341.90585 271.00016,342.29553 269.74741,342.29553 C 268.15952,342.29553 266.82897,341.90245 265.75575,341.1163 C 264.68253,340.33015 263.84071,339.14753 263.2303,337.56844 C 263.2303,337.56844 265.18124,335.55561 265.18124,335.55561 z "
         style="font-size:49.10470581px;font-style:normal;font-variant:normal;font-weight:normal;font-stretch:normal;text-align:center;line-height:100%;writing-mode:lr-tb;text-anchor:middle;fill:#c52624;fill-opacity:1;stroke:none;stroke-width:1px;stroke-linecap:butt;stroke-linejoin:miter;stroke-opacity:1;font-family:Arial" />
      <path
         id="text2120"
         d="M 278.47085,350.57052 L 278.47085,320.70341 L 280.97861,320.70341 L 280.97861,323.50917 C 281.56988,322.41128 282.23758,321.58785 282.98177,321.03887 C 283.72593,320.48995 284.62811,320.21546 285.68831,320.21544 C 287.0747,320.21546 288.298,320.68987 289.3582,321.63865 C 290.41838,322.58748 291.21862,323.92598 291.75892,325.65415 C 292.2992,327.38235 292.56934,329.27658 292.56936,331.33682 C 292.56934,333.5462 292.27116,335.5353 291.67482,337.30415 C 291.07845,339.073 290.21195,340.42844 289.07532,341.37047 C 287.93865,342.3125 286.74339,342.78351 285.48953,342.78351 C 284.57204,342.78351 283.74886,342.52598 283.01999,342.01091 C 282.2911,341.49584 281.6922,340.84523 281.22327,340.05909 L 281.22327,350.57052 L 278.47085,350.57052 z M 280.96332,331.62147 C 280.96332,334.40012 281.38637,336.45361 282.2325,337.78194 C 283.0786,339.11028 284.10311,339.77444 285.30603,339.77444 C 286.52932,339.77444 287.57676,339.08656 288.44837,337.71078 C 289.31996,336.33501 289.75576,334.20359 289.75578,331.31649 C 289.75576,328.56497 289.33015,326.5047 288.47895,325.13569 C 287.62773,323.76672 286.61087,323.08222 285.42836,323.0822 C 284.25602,323.08222 283.21877,323.81077 282.3166,325.26785 C 281.41441,326.72496 280.96332,328.84283 280.96332,331.62147 L 280.96332,331.62147 z "
         style="font-size:55.50286102px;font-style:normal;font-variant:normal;font-weight:normal;font-stretch:normal;text-align:center;line-height:100%;writing-mode:lr-tb;text-anchor:middle;fill:#c52624;fill-opacity:1;stroke:none;stroke-width:1px;stroke-linecap:butt;stroke-linejoin:miter;stroke-opacity:1;font-family:Arial" />
      <path
         id="text2140"
         d="M 361.2654,334.85417 L 363.98757,335.3218 C 363.55825,337.53116 362.76307,339.2458 361.60201,340.46568 C 360.44093,341.68558 358.9579,342.29553 357.15288,342.29553 C 354.87953,342.29553 353.07696,341.323 351.74515,339.37795 C 350.41334,337.43289 349.74743,334.70509 349.74743,331.19449 C 349.74743,327.56192 350.42065,324.74261 351.7671,322.73655 C 353.11354,320.73051 354.86002,319.72749 357.00653,319.72747 C 359.08473,319.72749 360.78243,320.71019 362.09962,322.67555 C 363.41677,324.64095 364.07536,327.40605 364.07537,330.97084 C 364.07536,331.18772 364.07049,331.51303 364.06074,331.94675 L 352.46959,331.94675 C 352.56716,334.31878 353.05012,336.13507 353.91848,337.39562 C 354.78684,338.65618 355.86985,339.28646 357.16752,339.28646 C 358.13344,339.28646 358.9579,338.93404 359.64089,338.22922 C 360.32386,337.52438 360.86536,336.39937 361.2654,334.85417 L 361.2654,334.85417 z M 352.61595,328.93767 L 361.29467,328.93767 C 361.17758,327.1214 360.84585,325.75919 360.29947,324.85102 C 359.46037,323.44139 358.37248,322.73657 357.0358,322.73655 C 355.82595,322.73657 354.80879,323.29907 353.98434,324.42406 C 353.15989,325.5491 352.70375,327.05364 352.61595,328.93767 L 352.61595,328.93767 z "
         style="font-size:54.29940796px;font-style:normal;font-variant:normal;font-weight:normal;font-stretch:normal;text-align:center;line-height:100%;writing-mode:lr-tb;text-anchor:middle;fill:#c52624;fill-opacity:1;stroke:none;stroke-width:1px;stroke-linecap:butt;stroke-linejoin:miter;stroke-opacity:1;font-family:Arial" />
      <path
         id="text2144"
         d="M 376.29506,341.80758 L 376.29506,339.08314 C 375.36773,341.22474 374.00431,342.29553 372.20478,342.29553 C 371.03875,342.29553 369.96683,341.82113 368.98902,340.87232 C 368.01121,339.92352 367.25375,338.59857 366.71665,336.89749 C 366.17953,335.19643 365.91098,333.2412 365.91098,331.03183 C 365.91098,328.8767 366.15428,326.92148 366.6409,325.16617 C 367.12751,323.41089 367.85742,322.06562 368.83064,321.13035 C 369.80386,320.19512 370.89184,319.72749 372.0946,319.72746 C 372.976,319.72749 373.76101,320.00196 374.44962,320.5509 C 375.1382,321.09987 375.69826,321.81486 376.12979,322.69588 L 376.12979,312.00147 L 378.59498,312.00147 L 378.59498,341.80758 L 376.29506,341.80758 z M 368.4588,331.03183 C 368.45879,333.79694 368.85359,335.86398 369.64319,337.23297 C 370.43278,338.60196 371.36468,339.28646 372.43891,339.28646 C 373.52229,339.28646 374.44272,338.63246 375.20019,337.32446 C 375.95764,336.01646 376.33636,334.02058 376.33638,331.3368 C 376.33636,328.38196 375.95075,326.21325 375.17953,324.8307 C 374.40829,323.44816 373.45802,322.75689 372.32872,322.75688 C 371.22697,322.75689 370.30653,323.42105 369.56745,324.74937 C 368.82835,326.07771 368.45879,328.17187 368.4588,331.03183 L 368.4588,331.03183 z "
         style="font-size:52.6735611px;font-style:normal;font-variant:normal;font-weight:normal;font-stretch:normal;text-align:center;line-height:100%;writing-mode:lr-tb;text-anchor:middle;fill:#c52624;fill-opacity:1;stroke:none;stroke-width:1px;stroke-linecap:butt;stroke-linejoin:miter;stroke-opacity:1;font-family:Arial" />
      <path
         id="text2148"
         d="M 382.93434,342.29553 L 382.93434,312.48946 L 385.66458,312.48946 L 385.66458,342.29553 L 382.93434,342.29553 z "
         style="font-size:55.27878189px;font-style:normal;font-variant:normal;font-weight:normal;font-stretch:normal;text-align:center;line-height:100%;writing-mode:lr-tb;text-anchor:middle;fill:#c52624;fill-opacity:1;stroke:none;stroke-width:1px;stroke-linecap:butt;stroke-linejoin:miter;stroke-opacity:1;font-family:Arial" />
      <path
         id="text2152"
         d="M 343.99954,316.69806 L 343.99954,312.48943 L 347.1945,312.48943 L 347.1945,316.69806 L 343.99954,316.69806 z M 343.99954,342.29553 L 343.99954,320.70339 L 347.1945,320.70339 L 347.1945,342.29553 L 343.99954,342.29553 z "
         style="font-size:59.79859543px;font-style:normal;font-variant:normal;font-weight:normal;font-stretch:normal;text-align:center;line-height:100%;writing-mode:lr-tb;text-anchor:middle;fill:#c52624;fill-opacity:1;stroke:none;stroke-width:1px;stroke-linecap:butt;stroke-linejoin:miter;stroke-opacity:1;font-family:Arial" />
      <path
         id="text2160"
         d="M 421.42911,331.01151 C 421.4291,327.01298 422.10726,324.05135 423.46359,322.12661 C 424.5966,320.52721 425.97773,319.72751 427.60697,319.72748 C 429.41814,319.72751 430.89851,320.70003 432.04808,322.64506 C 433.19764,324.59013 433.77242,327.27729 433.77243,330.70654 C 433.77242,333.4852 433.51811,335.67084 433.0095,337.26347 C 432.50088,338.85611 431.76068,340.09295 430.78894,340.97398 C 429.81718,341.85502 428.75653,342.29553 427.60697,342.29553 C 425.76271,342.29553 424.272,341.3264 423.13484,339.38812 C 421.99768,337.44985 421.4291,334.65764 421.42911,331.01151 L 421.42911,331.01151 z M 423.7241,331.01151 C 423.72409,333.77662 424.09212,335.84704 424.82817,337.22281 C 425.56421,338.59857 426.49048,339.28647 427.60697,339.28646 C 428.71518,339.28647 429.63731,338.5952 430.37337,337.21264 C 431.1094,335.8301 431.47743,333.72239 431.47744,330.88952 C 431.47743,328.21932 431.10734,326.19633 430.36716,324.82054 C 429.62696,323.44479 428.7069,322.7569 427.60697,322.75688 C 426.49048,322.7569 425.56421,323.4414 424.82817,324.81038 C 424.09212,326.17939 423.72409,328.24643 423.7241,331.01151 L 423.7241,331.01151 z "
         style="font-size:49.99181747px;font-style:normal;font-variant:normal;font-weight:normal;font-stretch:normal;text-align:center;line-height:100%;writing-mode:lr-tb;text-anchor:middle;fill:#c52624;fill-opacity:1;stroke:none;stroke-width:1px;stroke-linecap:butt;stroke-linejoin:miter;stroke-opacity:1;font-family:Arial" />
      <path
         id="text2164"
         d="M 438.96763,338.12755 C 439.60686,338.90016 440.50039,339.28646 441.64822,339.28646 C 442.80537,339.28646 443.66391,338.94421 444.22383,338.25971 C 444.78373,337.57522 445.06369,336.77212 445.0637,335.85041 C 445.06369,335.0236 444.8164,334.373 444.32182,333.89858 C 443.97652,333.57329 443.11799,333.15988 441.74621,332.65835 C 439.89848,331.98065 438.61768,331.39442 437.9038,330.89968 C 437.18989,330.40494 436.64865,329.72045 436.28004,328.84618 C 435.91142,327.97194 435.72712,327.00619 435.72712,325.94893 C 435.72712,324.98659 435.87877,324.09539 436.18205,323.27532 C 436.48534,322.45531 436.89828,321.7742 437.42087,321.232 C 437.8128,320.81184 438.34705,320.45603 439.02362,320.1646 C 439.70018,319.8732 440.42573,319.72748 441.20029,319.72746 C 442.36677,319.72748 443.39094,319.97146 444.27282,320.4594 C 445.15468,320.94738 445.80557,321.60815 446.22552,322.44173 C 446.22552,322.44173 443.65691,323.67179 443.65691,323.67179 C 443.12032,323.04831 442.36211,322.73655 441.38227,322.73654 C 440.2251,322.73655 439.39922,323.01442 438.90464,323.57013 C 438.41005,324.12588 438.16275,324.77649 438.16276,325.52197 C 438.16275,325.99639 438.2654,326.42335 438.4707,326.80286 C 438.67601,327.19595 438.99795,327.52126 439.43656,327.77877 C 439.68852,327.91433 440.4304,328.22608 441.66222,328.71403 C 443.4446,329.40531 444.68808,329.97121 445.39265,330.41172 C 446.0972,330.85224 446.65011,331.49269 447.0514,332.33306 C 447.45265,333.17343 447.65329,334.21712 447.65331,335.46411 C 447.65329,336.68402 447.40833,337.83275 446.91842,338.91032 C 446.42848,339.9879 445.72159,340.82149 444.79774,341.41111 C 443.87387,342.00072 442.8287,342.29553 441.66222,342.29553 C 439.73051,342.29553 438.2584,341.71269 437.24589,340.54701 C 437.24589,340.54701 438.96763,338.12755 438.96763,338.12755 z M 439.94048,317.53165 L 441.8022,311.83881 L 445.10569,311.83881 L 442.02616,317.53165 L 439.94048,317.53165 z "
         style="font-size:53.10376358px;font-style:normal;font-variant:normal;font-weight:normal;font-stretch:normal;text-align:center;line-height:100%;writing-mode:lr-tb;text-anchor:middle;fill:#c52624;fill-opacity:1;stroke:none;stroke-width:1px;stroke-linecap:butt;stroke-linejoin:miter;stroke-opacity:1;font-family:Arial" />
      <path
         id="text2168"
         d="M 462.00009,340.19121 C 460.66335,341.59409 459.0218,342.29553 457.07544,342.29553 C 454.63687,342.29553 452.67652,341.32979 451.19438,339.39828 C 449.71223,337.46678 448.97115,334.6983 448.97115,331.09283 C 448.97115,328.76149 449.28995,326.72155 449.92756,324.97302 C 450.56516,323.22452 451.53554,321.91314 452.83872,321.03886 C 454.14189,320.16463 455.55972,319.7275 457.09221,319.72748 C 459.02739,319.7275 460.61021,320.3205 461.84069,321.50649 C 461.84069,321.50649 459.78526,323.83445 459.78526,323.83445 C 459.07492,323.10253 458.2164,322.73657 457.20967,322.73655 C 455.68836,322.73657 454.4523,323.39734 453.5015,324.71887 C 452.55068,326.04045 452.07527,328.13121 452.07528,330.99117 C 452.07527,333.89182 452.5339,335.99953 453.45116,337.31429 C 454.36841,338.62907 455.56531,339.28646 457.04188,339.28645 C 458.22759,339.28646 459.21755,338.84594 460.01177,337.96491 C 460.01177,337.96491 462.00009,340.19121 462.00009,340.19121 z M 454.7767,317.53167 L 457.00832,311.83882 L 460.96818,311.83882 L 457.27678,317.53167 L 454.7767,317.53167 z "
         style="font-size:58.14041519px;font-style:normal;font-variant:normal;font-weight:normal;font-stretch:normal;text-align:center;line-height:100%;writing-mode:lr-tb;text-anchor:middle;fill:#c52624;fill-opacity:1;stroke:none;stroke-width:1px;stroke-linecap:butt;stroke-linejoin:miter;stroke-opacity:1;font-family:Arial" />
      <path
         id="text2172"
         d="M 294.21923,342.29553 L 294.21923,320.7034 L 296.99104,320.7034 L 296.99104,323.97678 C 297.69825,322.44516 298.35128,321.43535 298.95014,320.94738 C 299.54898,320.45944 300.20771,320.21546 300.92633,320.21544 C 301.96433,320.21546 303.01944,320.60854 304.09167,321.39467 L 303.03086,324.79004 C 302.27801,324.26144 301.52517,323.99714 300.77234,323.99711 C 300.09934,323.99714 299.4948,324.23773 298.95869,324.71888 C 298.42257,325.20008 298.04045,325.86764 297.81232,326.72154 C 297.47012,328.02278 297.29902,329.44599 297.29902,330.99117 L 297.29902,342.29553 L 294.21923,342.29553 z "
         style="font-size:58.71088409px;font-style:normal;font-variant:normal;font-weight:normal;font-stretch:normal;text-align:center;line-height:100%;writing-mode:lr-tb;text-anchor:middle;fill:#c52624;fill-opacity:1;stroke:none;stroke-width:1px;stroke-linecap:butt;stroke-linejoin:miter;stroke-opacity:1;font-family:Arial" />
      <path
         id="text2176"
         d="M 315.32165,339.14415 C 314.37802,340.29627 313.46979,341.10954 312.59695,341.58393 C 311.72409,342.05834 310.78755,342.29553 309.78732,342.29553 C 308.13597,342.29553 306.86681,341.71609 305.97981,340.55719 C 305.09281,339.3983 304.64931,337.91748 304.64931,336.11474 C 304.64931,335.0575 304.8168,334.09175 305.15178,333.21749 C 305.48676,332.34324 305.92555,331.6418 306.46813,331.11317 C 307.01072,330.58456 307.62171,330.18471 308.30112,329.9136 C 308.80123,329.72385 309.55613,329.54087 310.5658,329.36466 C 312.62289,329.01225 314.1374,328.59207 315.10934,328.10409 C 315.11876,327.60259 315.12348,327.28407 315.12349,327.14851 C 315.12348,325.65755 314.88285,324.60708 314.40162,323.99711 C 313.75051,323.17031 312.78331,322.75691 311.49999,322.75689 C 310.30158,322.75691 309.41694,323.05849 308.84606,323.66164 C 308.84606,323.66164 306.20628,322.6654 306.20628,322.6654 C 306.72527,321.72339 307.47545,320.99823 308.45681,320.48992 C 309.43817,319.98165 310.57524,319.7275 311.868,319.72748 C 313.15131,319.7275 314.19401,319.94437 314.99611,320.3781 C 315.79817,320.81186 316.38793,321.35742 316.7654,322.01478 C 317.14283,322.67219 317.40704,323.5024 317.55803,324.50541 C 317.64295,325.12892 317.68541,326.25394 317.68542,327.88045 L 317.68542,332.76003 C 317.68541,336.16219 317.73967,338.31395 317.84819,339.21531 C 317.9567,340.11668 318.17137,340.98076 318.49221,341.80758 L 315.83121,341.80758 C 315.56698,341.04854 315.39713,340.16072 315.32165,339.14415 L 315.32165,339.14415 z M 315.10934,330.97085 C 314.18458,331.51304 312.79746,331.97389 310.94797,332.35339 C 309.90055,332.57028 309.15981,332.81426 308.72575,333.08534 C 308.29168,333.35643 307.95669,333.7529 307.72079,334.27473 C 307.48488,334.79658 307.36693,335.37603 307.36693,336.01308 C 307.36693,336.989 307.62406,337.80226 308.13834,338.45287 C 308.65261,339.10348 309.40515,339.42879 310.39596,339.42879 C 311.37731,339.42879 312.25016,339.12043 313.0145,338.5037 C 313.77882,337.88698 314.34028,337.04322 314.69886,335.97242 C 314.9725,335.14561 315.10932,333.92572 315.10934,332.31273 L 315.10934,330.97085 z "
         style="font-size:53.39966583px;font-style:normal;font-variant:normal;font-weight:normal;font-stretch:normal;text-align:center;line-height:100%;writing-mode:lr-tb;text-anchor:middle;fill:#c52624;fill-opacity:1;stroke:none;stroke-width:1px;stroke-linecap:butt;stroke-linejoin:miter;stroke-opacity:1;font-family:Arial" />
      <path
         id="text2180"
         d="M 323.60557,342.29553 L 318.86371,320.70341 L 321.57752,320.70341 L 324.04328,333.16666 L 324.96247,337.80226 C 325.00137,337.57184 325.26887,336.08763 325.76494,333.34965 L 328.23071,320.70341 L 330.92992,320.70341 L 333.24978,333.22766 L 334.02306,337.35496 L 334.91307,333.18699 L 337.56851,320.70341 L 340.12182,320.70341 L 335.27784,342.29553 L 332.54944,342.29553 L 330.08368,329.36466 L 329.48548,325.68465 L 326.34856,342.29553 L 323.60557,342.29553 z "
         style="font-size:54.21590042px;font-style:normal;font-variant:normal;font-weight:normal;font-stretch:normal;text-align:center;line-height:100%;writing-mode:lr-tb;text-anchor:middle;fill:#c52624;fill-opacity:1;stroke:none;stroke-width:1px;stroke-linecap:butt;stroke-linejoin:miter;stroke-opacity:1;font-family:Arial" />
      <path
         id="text2188"
         d="M 248.70301,315.85146 L 248.70301,311.50363 L 251.89798,311.50363 L 251.89798,315.85146 L 248.70301,315.85146 z M 248.70301,342.29553 L 248.70301,319.98926 L 251.89798,319.98926 L 251.89798,342.29553 L 248.70301,342.29553 z "
         style="font-size:60.7794342px;font-style:normal;font-variant:normal;font-weight:normal;font-stretch:normal;text-align:center;line-height:100%;writing-mode:lr-tb;text-anchor:middle;fill:#c52624;fill-opacity:1;stroke:none;stroke-width:1px;stroke-linecap:butt;stroke-linejoin:miter;stroke-opacity:1;font-family:Arial" />
      <path
         id="text2192"
         d="M 401.81417,342.29553 L 397.07231,320.70343 L 399.78611,320.70343 L 402.25188,333.16667 L 403.17107,337.80227 C 403.20997,337.57185 403.47746,336.08764 403.97353,333.34965 L 406.4393,320.70343 L 409.13851,320.70343 L 411.45837,333.22766 L 412.23166,337.35497 L 413.12166,333.187 L 415.77711,320.70343 L 418.33041,320.70343 L 413.48642,342.29553 L 410.75803,342.29553 L 408.29227,329.36467 L 407.69407,325.68466 L 404.55715,342.29553 L 401.81417,342.29553 z "
         style="font-size:54.21588516px;font-style:normal;font-variant:normal;font-weight:normal;font-stretch:normal;text-align:center;line-height:100%;writing-mode:lr-tb;text-anchor:middle;fill:#c52624;fill-opacity:1;stroke:none;stroke-width:1px;stroke-linecap:butt;stroke-linejoin:miter;stroke-opacity:1;font-family:Arial" />
      <path
         id="text2196"
         d="M 390.33325,316.69808 L 390.33325,312.48944 L 393.52821,312.48944 L 393.52821,316.69808 L 390.33325,316.69808 z M 390.33325,342.29553 L 390.33325,320.7034 L 393.52821,320.7034 L 393.52821,342.29553 L 390.33325,342.29553 z "
         style="font-size:59.7985878px;font-style:normal;font-variant:normal;font-weight:normal;font-stretch:normal;text-align:center;line-height:100%;writing-mode:lr-tb;text-anchor:middle;fill:#c52624;fill-opacity:1;stroke:none;stroke-width:1px;stroke-linecap:butt;stroke-linejoin:miter;stroke-opacity:1;font-family:Arial" />
      <path
         id="path1948"
         d="M 193.74692,286.38285 L 234.49504,286.38285 L 234.49504,279.47924 C 234.49504,279.47924 224.89734,279.98438 224.89734,272.57563 C 224.89734,265.16688 224.89734,198.99328 224.89734,198.99328 L 240.72513,198.99328 C 240.72513,198.99328 260.0889,199.83519 260.0889,217.85192 C 260.0889,235.86865 233.31637,233.00618 233.31637,233.00618 L 233.31637,242.09874 L 247.62873,242.09874 C 247.62873,242.09874 281.47324,243.2774 281.47324,215.66297 C 281.47324,188.04854 243.25084,188.72206 243.25084,188.72206 L 193.74692,188.72206 L 193.74692,197.47786 C 193.74692,197.47786 203.00786,197.1411 203.00786,202.69766 C 203.00786,208.25422 203.00786,272.40725 203.00786,272.40725 C 203.00786,272.40725 202.50271,279.64762 193.74692,279.64762 L 193.74692,286.38285 z "
         style="opacity:1;color:black;fill:#073a76;fill-opacity:1;fill-rule:nonzero;stroke:#073a76;stroke-width:0.6506108;stroke-linecap:butt;stroke-linejoin:miter;marker:none;marker-start:none;marker-mid:none;marker-end:none;stroke-miterlimit:4;stroke-dasharray:none;stroke-dashoffset:0;stroke-opacity:1;visibility:visible;display:inline;overflow:visible" />
      <path
         id="path1950"
         d="M 354.38207,252.03319 L 344.11085,252.03319 L 344.11085,286.71961 L 392.09934,286.71961 C 392.09934,286.71961 426.95413,288.74017 426.95413,253.717 C 426.95413,253.717 427.96441,234.52161 390.75229,226.43933 C 390.75229,226.43933 363.47462,221.55629 363.47462,211.9586 C 363.47462,202.3609 376.94507,196.97271 387.38467,197.1411 C 397.82428,197.30948 408.26388,203.03442 413.48368,208.25422 L 422.91299,208.25422 L 413.14691,189.73235 C 413.14691,189.73235 398.16104,186.02798 389.91038,186.02798 C 381.65973,186.02798 348.65712,188.55369 348.32037,214.31592 C 347.9836,240.07817 382.8384,245.12959 382.8384,245.12959 C 382.8384,245.12959 412.13663,249.84424 411.96825,261.46251 C 411.79987,273.08077 397.15075,275.94324 383.17516,275.94324 C 369.19957,275.94324 354.38207,277.96381 354.38207,252.03319 z "
         style="opacity:1;color:black;fill:#073a76;fill-opacity:1;fill-rule:nonzero;stroke:#073a76;stroke-width:0.6506108;stroke-linecap:butt;stroke-linejoin:miter;marker:none;marker-start:none;marker-mid:none;marker-end:none;stroke-miterlimit:4;stroke-dasharray:none;stroke-dashoffset:0;stroke-opacity:1;visibility:visible;display:inline;overflow:visible" />
      <path
         sodipodi:nodetypes="cccsccccc"
         style="opacity:1;color:black;fill:#c52624;fill-opacity:1;fill-rule:nonzero;stroke:#c52624;stroke-width:0.6506108;stroke-linecap:butt;stroke-linejoin:miter;marker:none;marker-start:none;marker-mid:none;marker-end:none;stroke-miterlimit:4;stroke-dasharray:none;stroke-dashoffset:0;stroke-opacity:1;visibility:visible;display:inline;overflow:visible"
         d="M 288.71361,286.38285 L 329.46173,286.38285 L 329.46173,279.47924 C 329.46173,279.47924 319.86403,279.98438 319.86403,272.57563 C 319.86403,265.16688 319.86403,221.97724 319.86403,221.97724 C 319.86403,221.97724 297.97455,221.97724 297.97455,221.97724 C 297.97455,221.97724 297.97455,272.40725 297.97455,272.40725 C 297.97455,272.40725 297.4694,279.64762 288.71361,279.64762 L 288.71361,286.38285 z "
         id="path1952" />
      <path
         id="path1954"
         d="M 319.86403,214.5685 C 319.86403,214.5685 297.97455,214.5685 297.97455,214.5685 C 297.97455,214.5685 296.79588,158.75031 240.38836,170.70534 C 240.38836,170.70534 290.90256,141.91224 319.86403,214.5685 z "
         style="opacity:1;color:black;fill:#073a76;fill-opacity:1;fill-rule:nonzero;stroke:#073a76;stroke-width:0.6506108;stroke-linecap:butt;stroke-linejoin:miter;marker:none;marker-start:none;marker-mid:none;marker-end:none;stroke-miterlimit:4;stroke-dasharray:none;stroke-dashoffset:0;stroke-opacity:1;visibility:visible;display:inline;overflow:visible"
         sodipodi:nodetypes="cccc" />
      <path
         sodipodi:nodetypes="csccscsc"
         id="path1956"
         d="M 277.43211,127.09474 C 277.43211,127.09474 258.91023,123.72713 242.57731,125.91608 C 226.24439,128.10503 226.74953,143.25929 227.75981,164.47525 C 227.75981,164.47525 226.91791,135.51378 251.16472,135.51378 C 251.16472,135.51378 255.37424,135.3454 259.58376,136.35568 C 263.79328,137.36596 277.09535,139.38653 283.66219,138.03949 C 283.66219,138.03949 290.73418,123.89552 306.2252,123.55875 C 321.71622,123.22199 331.4823,128.61017 381.49135,155.21431 C 381.49135,155.21431 335.52344,112.78239 310.26633,112.78239 C 285.00924,112.78239 277.26373,127.26313 277.43211,127.09474 z "
         style="opacity:1;color:black;fill:#073a76;fill-opacity:1;fill-rule:nonzero;stroke:#073a76;stroke-width:0.6506108;stroke-linecap:butt;stroke-linejoin:miter;marker:none;marker-start:none;marker-mid:none;marker-end:none;stroke-miterlimit:4;stroke-dasharray:none;stroke-dashoffset:0;stroke-opacity:1;visibility:visible;display:inline;overflow:visible" />
      <path
         sodipodi:nodetypes="csccc"
         id="path2154"
         d="M 306.2252,145.44823 C 306.2252,145.44823 298.14293,143.59605 298.14293,137.8711 C 298.14293,132.14616 311.78176,132.31454 324.74707,141.4071 C 324.74707,141.4071 318.18023,141.91224 314.30747,141.57548 C 312.87665,144.92399 309.84663,146.24474 306.2252,145.44823 z "
         style="opacity:1;color:black;fill:#073a76;fill-opacity:1;fill-rule:nonzero;stroke:#073a76;stroke-width:0.6506108;stroke-linecap:butt;stroke-linejoin:miter;marker:none;marker-start:none;marker-mid:none;marker-end:none;stroke-miterlimit:4;stroke-dasharray:none;stroke-dashoffset:0;stroke-opacity:1;visibility:visible;display:inline;overflow:visible" />
      <path
         sodipodi:nodetypes="ccccccccccs"
         d="M 340.08664,108.20141 C 329.61412,102.31631 319.26108,103.12036 310.61933,102.30596 C 310.61933,102.30596 317.89379,73.667456 313.0211,41.098346 C 313.0211,41.098346 323.82326,54.505586 327.12418,65.600595 C 327.12418,65.600595 337.04214,62.012879 339.25741,72.081272 C 339.25741,72.081272 354.13416,55.899361 364.47036,55.802157 C 371.22013,63.615238 369.19957,84.831196 369.19957,84.831196 C 379.47079,82.137114 382.33325,90.724526 382.33325,90.724526 C 392.26771,84.157684 409.94769,84.831203 409.94769,84.831203 C 388.90009,96.617844 364.99005,126.92637 364.99005,126.92637 C 358.68277,120.96302 347.48291,112.35778 340.08664,108.20141 z "
         style="color:black;fill:none;fill-opacity:1;fill-rule:nonzero;stroke:#073a76;stroke-width:4.55427551;stroke-linecap:butt;stroke-linejoin:miter;marker:none;marker-start:none;marker-mid:none;marker-end:none;stroke-miterlimit:4;stroke-dasharray:none;stroke-dashoffset:0;stroke-opacity:1;visibility:visible;display:inline;overflow:visible"
         id="path2305" />
    </g>
  </g>
</svg>
